<svg width="24" height="22" viewBox="0 0 24 22" fill="none" xmlns="http://www.w3.org/2000/svg">
<path d="M12.166 21.7312C18.5394 21.7312 23.706 16.9266 23.706 10.9999C23.706 5.07313 18.5394 0.268555 12.166 0.268555C5.79266 0.268555 0.626038 5.07313 0.626038 10.9999C0.626038 16.9266 5.79266 21.7312 12.166 21.7312Z" fill="url(#paint0_linear_10_773)"/>
<path d="M5.84601 8.73072C5.88601 8.45175 5.91601 8.18208 5.97601 7.90311C6.27601 6.35949 7.45602 5.30871 9.13602 5.25292C11.166 5.18783 13.196 5.18783 15.216 5.25292C17.046 5.31801 18.376 6.57337 18.426 8.27507C18.486 10.0791 18.486 11.8924 18.426 13.7056C18.366 15.4073 17.046 16.672 15.216 16.7278C13.196 16.7929 11.156 16.7929 9.13602 16.7278C7.30602 16.6627 6.03602 15.398 5.91602 13.6963C5.90602 13.5476 5.87601 13.3988 5.84601 13.2593C5.84601 11.7529 5.84601 10.2371 5.84601 8.73072ZM12.166 15.7235C13.096 15.7235 14.016 15.7514 14.946 15.7142C16.396 15.6677 17.286 14.8587 17.326 13.5104C17.366 11.8273 17.366 10.1442 17.326 8.47035C17.296 7.122 16.396 6.2944 14.946 6.2665C13.106 6.2293 11.266 6.2293 9.42601 6.2665C7.98601 6.2944 7.09601 7.10341 7.05601 8.43315C7.00601 10.1349 7.00601 11.8366 7.05601 13.5383C7.09601 14.868 7.98601 15.6584 9.42601 15.7049C10.336 15.7514 11.246 15.7235 12.166 15.7235Z" fill="white"/>
<path d="M12.166 8.00537C10.386 8.00537 8.94604 9.34442 8.94604 10.9996C8.94604 12.6548 10.386 13.9939 12.166 13.9939C13.946 13.9939 15.386 12.6548 15.386 10.9996C15.376 9.34442 13.936 8.00537 12.166 8.00537ZM12.166 12.9617C10.996 12.9617 10.056 12.0876 10.056 10.9996C10.056 9.91166 10.996 9.03755 12.166 9.03755C13.336 9.03755 14.276 9.91166 14.276 10.9996C14.276 12.0783 13.326 12.9617 12.166 12.9617Z" fill="white"/>
<path d="M16.336 7.86548C16.336 8.25606 15.996 8.58154 15.566 8.58154C15.146 8.58154 14.796 8.26536 14.796 7.86548C14.796 7.4749 15.136 7.14941 15.566 7.14941C15.986 7.15871 16.336 7.4749 16.336 7.86548Z" fill="white"/>
<defs>
<linearGradient id="paint0_linear_10_773" x1="6.49163" y1="19.4318" x2="18.3312" y2="-0.939106" gradientUnits="userSpaceOnUse">
<stop stop-color="#F9E001"/>
<stop offset="0.0544" stop-color="#F8DB07"/>
<stop offset="0.1167" stop-color="#FACD10"/>
<stop offset="0.1829" stop-color="#FAB728"/>
<stop offset="0.2514" stop-color="#F49742"/>
<stop offset="0.3054" stop-color="#EF7A55"/>
<stop offset="0.4922" stop-color="#E72D76"/>
<stop offset="1" stop-color="#554192"/>
</linearGradient>
</defs>
</svg>
