<svg width="24" height="22" viewBox="0 0 24 22" fill="none" xmlns="http://www.w3.org/2000/svg">
<path d="M11.876 21.7312C18.2493 21.7312 23.416 16.9266 23.416 10.9999C23.416 5.07313 18.2493 0.268555 11.876 0.268555C5.50263 0.268555 0.336029 5.07313 0.336029 10.9999C0.336029 16.9266 5.50263 21.7312 11.876 21.7312Z" fill="#5FA8DD"/>
<path d="M18.936 7.97743C18.446 8.18201 17.906 8.3215 17.356 8.37729C17.926 8.06112 18.366 7.55897 18.566 6.95453C18.036 7.2521 17.446 7.46598 16.816 7.57757C16.316 7.07543 15.596 6.76855 14.806 6.76855C13.286 6.76855 12.046 7.91234 12.046 9.33509C12.046 9.53967 12.066 9.73495 12.116 9.92093C9.82602 9.81864 7.79598 8.79575 6.43598 7.24281C6.19598 7.62407 6.06598 8.06112 6.06598 8.53537C6.06598 9.42808 6.55599 10.2092 7.296 10.6741C6.846 10.6648 6.41599 10.544 6.04599 10.3487C6.04599 10.358 6.04599 10.3673 6.04599 10.3766C6.04599 11.6226 6.99599 12.6548 8.25599 12.8873C8.02599 12.9431 7.77598 12.9803 7.52598 12.9803C7.34598 12.9803 7.17599 12.9617 7.00599 12.9338C7.35599 13.9567 8.37601 14.6913 9.58602 14.7099C8.64601 15.3981 7.45599 15.8072 6.16599 15.8072C5.94599 15.8072 5.72598 15.7979 5.50598 15.77C6.72599 16.4953 8.176 16.9231 9.73601 16.9231C14.806 16.9231 17.5861 13.0175 17.5861 9.62336C17.5861 9.51177 17.586 9.40018 17.576 9.28859C18.096 8.94453 18.566 8.48888 18.936 7.97743Z" fill="#F0F1F1"/>
</svg>
