<svg width="64" height="64" viewBox="0 0 64 64" fill="none" xmlns="http://www.w3.org/2000/svg">
<path d="M24.4665 3.45203L24.5862 3.85336C25.6479 6.81335 26.6737 11.024 27.6875 15.5613H27.6889C28.7093 20.7946 29.0885 24.716 28.696 30.1533C28.6814 32.4586 28.2197 33.0533 27.3589 35.4599C24.1858 30.9213 22.7036 25.0826 23.7241 18.412C20.1837 24.1973 22.6251 31.6026 25.6825 39.1746C25.0892 40.1599 24.4758 41.0693 23.8172 41.8239C18.9291 35.2279 16.2057 26.2906 18.671 14.4347C12.499 25.344 16.9787 34.6306 21.7923 43.8679C21.0991 44.4852 20.366 45.0079 19.6183 45.4959C13.4862 35.1506 12.2715 28.2186 12.0014 21.9426C12.3992 11.7667 18.0816 6.41335 24.4665 3.45203Z" fill="#F8B900"/>
<path d="M38.9513 53.8733C40.464 51.8667 41.555 50.3427 42.6646 48.5707C32.5504 41.7307 30.1184 22.6388 35.9405 2.37482C34.626 2.14282 33.3341 1.98282 32.0954 2.00149C32.0928 2.00149 32.0888 2.00149 32.0848 2.00149C32.0808 2.00149 32.0781 2.00149 32.0741 2.00149C30.8355 1.98282 29.5423 2.14149 28.2291 2.37482C34.0499 22.6374 31.6191 41.7307 21.5049 48.5707C22.6159 50.344 23.7055 51.868 25.2183 53.8733C25.9992 48.792 29.3533 45.1907 29.6101 44.9094C29.7724 46.088 30.1676 52.228 27.5812 56.8867C29.1538 58.8867 30.6319 60.3947 32.0741 61.9773V62C32.0768 61.9973 32.0808 61.9933 32.0848 61.988C32.0888 61.992 32.0914 61.9947 32.0954 62V61.9787C33.5403 60.3973 35.0158 58.888 36.5884 56.888C34.002 52.2294 34.3958 46.0894 34.5594 44.9107C34.8162 45.1907 38.1703 48.7934 38.9513 53.8733ZM29.5715 44.944C29.5476 44.6334 29.5729 44.6467 29.6101 44.9067C29.5995 44.9147 29.5875 44.9267 29.5715 44.944ZM34.5967 44.944C34.5807 44.928 34.5687 44.9174 34.5581 44.9067C34.5954 44.644 34.6206 44.632 34.5967 44.944Z" fill="#00A9C4"/>
<path d="M39.6257 3.45203L39.506 3.85336C38.4443 6.81335 37.4185 11.024 36.4047 15.5613H36.4034C35.3829 20.7946 35.0037 24.716 35.3962 30.1533C35.4108 32.4586 35.8725 33.0533 36.7333 35.4599C39.9065 30.9213 41.3886 25.0826 40.3681 18.412C43.9085 24.1973 41.4671 31.6026 38.4097 39.1746C39.0031 40.1599 39.6164 41.0693 40.275 41.8239C45.1631 35.2279 47.8866 26.2906 45.4212 14.4347C51.5932 25.344 47.1122 34.6306 42.3 43.8679C42.9931 44.4852 43.7262 45.0079 44.4739 45.4959C50.606 35.1506 51.8221 28.2173 52.0908 21.9426C51.6917 11.7667 46.0093 6.41335 39.6257 3.45203Z" fill="#E21542"/>
<path d="M46.2142 19.8507C46.0718 18.1174 45.8124 16.3134 45.4225 14.4361C46.8754 17.0054 47.7375 19.4841 48.1447 21.8934C49.5589 23.6067 50.7031 25.552 51.5174 27.6614C51.854 25.6547 52.0136 23.772 52.0921 21.9454C51.693 11.7667 46.0106 6.41342 39.6257 3.45343L39.506 3.85476C38.5041 6.64809 37.5342 10.5561 36.5763 14.8001C40.2444 15.6067 43.5506 17.3841 46.2142 19.8507Z" fill="#BA0433"/>
<path d="M33.4258 14.3548C32.9814 14.3268 32.5344 14.3108 32.0834 14.3108C31.6324 14.3108 31.1853 14.3268 30.7396 14.3548C30.2314 10.4681 29.3958 6.44548 28.2264 2.37482C29.5395 2.14149 30.8327 1.98282 32.0714 2.00149H32.0927C33.3327 1.98282 34.6246 2.14282 35.9391 2.37482C34.7696 6.44548 33.9341 10.4681 33.4258 14.3548Z" fill="#0078BA"/>
<path d="M28.1692 55.6853C29.4371 55.9267 30.7449 56.0547 32.0834 56.0547C33.4218 56.0547 34.731 55.9267 35.9989 55.6853C36.1759 56.0933 36.3715 56.496 36.5883 56.888C35.3521 58.4589 34.1766 59.7271 33.0289 60.9652C32.7154 61.3034 32.404 61.6394 32.094 61.9787V62C32.09 61.9947 32.0874 61.992 32.0834 61.988C32.0794 61.9933 32.0767 61.996 32.0727 62V61.9787C31.7478 61.622 31.421 61.2692 31.0917 60.9137C29.9596 59.6914 28.798 58.4373 27.5798 56.888C27.798 56.4973 27.9922 56.0947 28.1692 55.6853Z" fill="#0078BA"/>
<path d="M15.9289 22.0108C16.3267 19.5642 17.1928 17.0468 18.6696 14.4348C18.2731 16.3402 18.0124 18.1695 17.8713 19.9268C20.5309 17.4375 23.8411 15.6388 27.5185 14.8135C26.5592 10.5642 25.5893 6.64953 24.5848 3.8522L24.4651 3.45087C18.0815 6.41353 12.3991 11.7668 12 21.9455C12.0798 23.8148 12.2461 25.7428 12.5987 27.8015C13.397 25.6855 14.5279 23.7348 15.9289 22.0108Z" fill="#ED8500"/>
</svg>
