<svg width="16" height="16" viewBox="0 0 16 16" fill="none" xmlns="http://www.w3.org/2000/svg">
<path fill-rule="evenodd" clip-rule="evenodd" d="M8.23441 2.37498C8.96674 2.37498 9.56254 3.00582 9.56254 3.78123C9.56254 4.55664 8.96674 5.18748 8.23441 5.18748C7.50208 5.18748 6.90628 4.55664 6.90628 3.78123C6.90628 3.00582 7.50208 2.37498 8.23441 2.37498ZM8.23441 3.31248C7.9903 3.31248 7.7917 3.52276 7.7917 3.78123C7.7917 4.0397 7.9903 4.24998 8.23441 4.24998C8.47852 4.24998 8.67712 4.0397 8.67712 3.78123C8.67712 3.52276 8.47852 3.31248 8.23441 3.31248Z" fill="white"/>
<path fill-rule="evenodd" clip-rule="evenodd" d="M11.3229 4.05166L15.7605 2.32884V13.632L11.2697 15.5H5.19918L0.708374 13.632V2.32884L5.14591 4.05166C5.13926 3.96209 5.13546 3.872 5.13546 3.78125C5.13546 1.97197 6.52565 0.5 8.23442 0.5C9.94318 0.5 11.3334 1.97197 11.3334 3.78125C11.3334 3.87197 11.3296 3.96209 11.3229 4.05166ZM12.4551 10.3152C13.2803 9.73653 14.1223 9.48109 14.875 9.57169V3.67116L11.3334 5.04616V11.2284L11.4205 11.1528C11.748 10.868 12.0869 10.5734 12.4551 10.3152ZM7.77013 8.36941C7.40611 8.06122 6.63538 7.35287 6.02087 6.41134L6.02084 10.2922C6.1891 10.1431 6.36403 10.0108 6.53533 9.88169C6.70658 9.75261 6.86835 9.63067 7.01626 9.49741C7.35915 9.1885 7.68186 8.69253 7.77013 8.36941ZM7.04861 10.6456C6.80553 10.8288 6.57594 11.0019 6.38868 11.2067C6.14046 11.4783 5.94299 11.8964 6.06128 12.2186C6.22806 12.6727 6.94345 12.7811 7.15872 12.8035C8.27163 12.919 9.40567 12.6359 10.3524 12.006C10.3812 11.9868 10.4097 11.9669 10.4381 11.9471L10.448 11.9402V6.41134C9.81506 7.38106 9.01642 8.10344 8.66712 8.396C8.56893 9.16947 7.87939 9.95078 7.59004 10.2114C7.41309 10.3709 7.22803 10.5104 7.04907 10.6452L7.04861 10.6456ZM10.448 3.78125C10.448 2.48891 9.45496 1.4375 8.23442 1.4375C7.01387 1.4375 6.02087 2.48891 6.02087 3.78125C6.02087 5.45144 7.59925 7.00306 8.23403 7.55937C8.86834 7.002 10.448 5.4465 10.448 3.78125ZM3.04431 5.99109C3.47802 5.47478 4.03648 5.08484 4.64966 4.85753L1.59382 3.67116V7.7435C1.82211 7.61634 2.01059 7.41653 2.12478 7.27684C2.27051 7.09859 2.40117 6.90134 2.5395 6.69247C2.69404 6.45915 2.85405 6.21757 3.04431 5.99109ZM1.59379 8.74325V12.993L5.13546 14.4663V5.678C4.58771 5.83722 4.08485 6.16303 3.70586 6.61419C3.54953 6.80028 3.41102 7.00938 3.26439 7.23078C3.11939 7.44972 2.96943 7.67609 2.79415 7.89047C2.43328 8.33184 2.01814 8.6245 1.59379 8.74325ZM6.02087 13.4345V14.5625H10.448V13.0294C9.58748 13.5122 8.62022 13.7662 7.64709 13.7662C7.4554 13.7662 7.26362 13.7564 7.07225 13.7365C6.66413 13.6941 6.31049 13.5912 6.02087 13.4345ZM11.3334 12.4247V14.4663L14.875 12.993V10.5182C14.1243 10.3753 13.355 10.8086 12.944 11.0968C12.6139 11.3282 12.3077 11.5945 11.9835 11.8763L11.9824 11.8773C11.7721 12.0601 11.5574 12.2463 11.3334 12.4247Z" fill="white"/>
</svg>
